<?xml version="1.0" encoding="iso-8859-1"?>
<!-- Generator: Adobe Illustrator 18.1.1, SVG Export Plug-In . SVG Version: 6.00 Build 0)  -->
<svg version="1.1" id="Capa_1" xmlns="http://www.w3.org/2000/svg" xmlns:xlink="http://www.w3.org/1999/xlink" x="0px" y="0px"
	 viewBox="0 0 27.498 27.498" style="enable-background:new 0 0 27.498 27.498;" xml:space="preserve">
<g>
	<g id="c121_arrow">
		<path style="fill:#030104;" d="M13.749,0C6.155,0,0,6.157,0,13.749c0,7.594,6.155,13.749,13.749,13.749
			c7.591,0,13.748-6.155,13.748-13.749C27.497,6.157,21.34,0,13.749,0z M22.494,13.987L9.769,24.021
			c-0.091,0.071-0.213,0.086-0.317,0.036s-0.166-0.154-0.166-0.269v-4.637l6.55-5.165c0.143-0.117,0.143-0.357,0-0.473l-6.55-5.168
			V3.713c0-0.115,0.062-0.22,0.166-0.27s0.227-0.036,0.317,0.035l12.725,10.036C22.637,13.63,22.637,13.87,22.494,13.987z"/>
	</g>
</g>
<g>
</g>
<g>
</g>
<g>
</g>
<g>
</g>
<g>
</g>
<g>
</g>
<g>
</g>
<g>
</g>
<g>
</g>
<g>
</g>
<g>
</g>
<g>
</g>
<g>
</g>
<g>
</g>
<g>
</g>
</svg>
